<svg width="318" height="69" viewBox="0 0 318 69" fill="none" xmlns="http://www.w3.org/2000/svg">
<rect y="9" width="50" height="50" rx="10" fill="#10375C"/>
<path fill-rule="evenodd" clip-rule="evenodd" d="M31.9929 41.0281C31.1275 42.5271 29.2108 43.0406 27.7119 42.1752C26.2129 41.3098 25.6994 39.3931 26.5648 37.8942L33.4594 25.9523C34.3248 24.4534 36.2415 23.9398 37.7404 24.8052C39.2394 25.6706 39.753 27.5873 38.8875 29.0863L31.9929 41.0281ZM11.1894 29.1564C10.324 27.6575 10.8376 25.7408 12.3365 24.8754C13.8355 24.01 15.7521 24.5236 16.6176 26.0225L23.5122 37.9644C24.3776 39.4633 23.864 41.38 22.3651 42.2454C20.8662 43.1108 18.9495 42.5973 18.0841 41.0983L11.1894 29.1564ZM24.9977 33.4628C27.0747 33.4628 28.7584 31.7791 28.7584 29.7021C28.7584 27.6251 27.0747 25.9414 24.9977 25.9414C22.9207 25.9414 21.237 27.6251 21.237 29.7021C21.237 31.7791 22.9207 33.4628 24.9977 33.4628Z" fill="white"/>
<path d="M75.5762 52.15L67.8762 31C67.5095 29.9333 66.7762 29.1833 65.6762 28.75L64.8262 28.45V27.95H77.0762V28.45L76.3262 28.65C75.0262 29.05 74.5928 29.85 75.0262 31.05L79.6762 45.2L83.8262 34.2L82.8762 31.35C82.6428 30.6167 82.3928 30.0667 82.1262 29.7C81.8928 29.3 81.5762 29.0167 81.1762 28.85L80.3262 28.45V27.95H90.6762V28.45L89.9762 28.75C89.4762 28.95 89.1762 29.2167 89.0762 29.55C88.9762 29.8833 89.0428 30.3833 89.2762 31.05L93.8762 44.95L98.6262 31.15C99.0928 29.8833 98.8428 29.0833 97.8762 28.75L96.7762 28.45V27.95H102.776V28.45L101.576 28.8C101.01 28.9667 100.593 29.2333 100.326 29.6C100.093 29.9333 99.8762 30.4 99.6762 31L92.4762 52.15H89.9262L84.3762 35.8L78.4762 52.15H75.5762ZM115.387 52.75C112.854 52.75 110.654 52.2333 108.787 51.2C106.92 50.1333 105.47 48.6333 104.437 46.7C103.437 44.7667 102.937 42.5 102.937 39.9C102.937 37.3 103.47 35.05 104.537 33.15C105.637 31.25 107.12 29.7833 108.987 28.75C110.887 27.7167 113.02 27.2 115.387 27.2C117.754 27.2 119.87 27.7167 121.737 28.75C123.604 29.75 125.07 31.2 126.137 33.1C127.237 35 127.787 37.2667 127.787 39.9C127.787 42.5333 127.27 44.8167 126.237 46.75C125.237 48.65 123.804 50.1333 121.937 51.2C120.104 52.2333 117.92 52.75 115.387 52.75ZM115.387 51.75C116.554 51.75 117.487 51.4167 118.187 50.75C118.887 50.0833 119.387 48.9 119.687 47.2C120.02 45.5 120.187 43.1 120.187 40C120.187 36.8667 120.02 34.45 119.687 32.75C119.387 31.05 118.887 29.8667 118.187 29.2C117.487 28.5333 116.554 28.2 115.387 28.2C114.22 28.2 113.27 28.5333 112.537 29.2C111.837 29.8667 111.32 31.05 110.987 32.75C110.687 34.45 110.537 36.8667 110.537 40C110.537 43.1 110.687 45.5 110.987 47.2C111.32 48.9 111.837 50.0833 112.537 50.75C113.27 51.4167 114.22 51.75 115.387 51.75ZM129.65 52V51.5L130.4 51.3C131.066 51.1 131.516 50.8 131.75 50.4C132.016 50 132.15 49.4833 132.15 48.85V33.2C132.15 32.4667 132.016 31.9333 131.75 31.6C131.516 31.2333 131.066 30.9833 130.4 30.85L129.65 30.65V30.15L138.25 27.25L138.75 27.75L139.2 32.05V32.45C139.666 31.5167 140.266 30.6667 141 29.9C141.766 29.1 142.6 28.45 143.5 27.95C144.433 27.45 145.35 27.2 146.25 27.2C147.516 27.2 148.483 27.55 149.15 28.25C149.816 28.95 150.15 29.8333 150.15 30.9C150.15 32.0333 149.816 32.9167 149.15 33.55C148.516 34.15 147.75 34.45 146.85 34.45C145.45 34.45 144.216 33.75 143.15 32.35L143.05 32.25C142.716 31.7833 142.333 31.5333 141.9 31.5C141.466 31.4333 141.066 31.6333 140.7 32.1C140.366 32.4 140.083 32.7667 139.85 33.2C139.65 33.6 139.45 34.0667 139.25 34.6V48.55C139.25 49.8833 139.833 50.7167 141 51.05L142.6 51.5V52H129.65ZM150.413 52V51.5L151.163 51.25C152.296 50.8833 152.863 50.0667 152.863 48.8V22.05C152.863 21.3833 152.729 20.8833 152.463 20.55C152.196 20.2167 151.729 19.95 151.063 19.75L150.413 19.6V19.1L159.563 16.95L160.163 17.4L160.013 24.4V48.8C160.013 50.1333 160.563 50.9667 161.663 51.3L162.363 51.5V52H150.413ZM168.963 52L160.063 39.5L169.313 30.95C169.746 30.55 169.996 30.1333 170.063 29.7C170.163 29.2333 169.879 28.9 169.213 28.7L168.363 28.45V27.95H175.813V28.45L174.312 28.85C173.579 29.0833 172.979 29.3667 172.513 29.7C172.079 30 171.546 30.4333 170.913 31L165.313 36.25L174.263 48.7C174.796 49.4333 175.296 50 175.763 50.4C176.229 50.8 176.829 51.1333 177.562 51.4L177.763 51.5V52H168.963ZM178.299 63.5V63L178.899 62.8C180.133 62.4667 180.749 61.6667 180.749 60.4V33.2C180.749 32.4667 180.616 31.9167 180.349 31.55C180.116 31.1833 179.666 30.9333 178.999 30.8L178.299 30.65V30.15L186.799 27.25L187.299 27.75L187.749 29.3C188.849 28.6333 190.066 28.1167 191.399 27.75C192.766 27.3833 194.166 27.2 195.599 27.2C198.466 27.2 200.733 28.3 202.399 30.5C204.099 32.6667 204.949 35.7833 204.949 39.85C204.949 43.85 204.016 47 202.149 49.3C200.316 51.6 197.716 52.75 194.349 52.75C191.716 52.75 189.499 52.3667 187.699 51.6V60.25C187.699 61.5833 188.299 62.4167 189.499 62.75L190.449 63V63.5H178.299ZM191.949 51.3C193.616 51.3 194.933 50.4333 195.899 48.7C196.899 46.9667 197.399 44.0833 197.399 40.05C197.399 36.0167 196.933 33.2 195.999 31.6C195.066 29.9667 193.716 29.15 191.949 29.15C190.716 29.15 189.349 29.55 187.849 30.35V50.5C189.116 51.0333 190.483 51.3 191.949 51.3ZM206.827 52V51.5L207.427 51.3C208.627 50.9 209.227 50.0667 209.227 48.8V22.05C209.227 21.3833 209.094 20.8833 208.827 20.55C208.56 20.1833 208.094 19.9167 207.427 19.75L206.777 19.6V19.1L215.927 16.95L216.527 17.4L216.327 24.4V41.5C216.327 42.7333 216.327 43.9667 216.327 45.2C216.36 46.4 216.377 47.6 216.377 48.8C216.377 49.4667 216.51 50.0167 216.777 50.45C217.044 50.85 217.494 51.15 218.127 51.35L218.777 51.5V52H206.827ZM233.2 27.2C235.367 27.2 237.217 27.65 238.75 28.55C240.284 29.4167 241.45 30.6167 242.25 32.15C243.084 33.65 243.5 35.3667 243.5 37.3C243.5 37.6667 243.484 38.05 243.45 38.45C243.417 38.8167 243.35 39.15 243.25 39.45H228.35C228.384 43.05 229.017 45.65 230.25 47.25C231.517 48.8167 233.384 49.6 235.85 49.6C237.517 49.6 238.867 49.3333 239.9 48.8C240.934 48.2667 241.9 47.4833 242.8 46.45L243.3 46.9C242.267 48.7333 240.884 50.1667 239.15 51.2C237.45 52.2333 235.4 52.75 233 52.75C230.634 52.75 228.534 52.25 226.7 51.25C224.867 50.2167 223.434 48.75 222.4 46.85C221.367 44.95 220.85 42.6833 220.85 40.05C220.85 37.3167 221.45 35 222.65 33.1C223.85 31.1667 225.384 29.7 227.25 28.7C229.15 27.7 231.134 27.2 233.2 27.2ZM233.05 28.2C232.084 28.2 231.25 28.5 230.55 29.1C229.884 29.6667 229.35 30.7 228.95 32.2C228.584 33.6667 228.384 35.75 228.35 38.45H236.9C237.234 34.8167 237.1 32.2 236.5 30.6C235.9 29 234.75 28.2 233.05 28.2ZM245.659 52V51.5L246.359 51.3C247.526 50.9667 248.109 50.15 248.109 48.85V33.2C248.109 32.4667 247.992 31.9333 247.759 31.6C247.526 31.2333 247.076 30.9833 246.409 30.85L245.659 30.65V30.15L254.209 27.25L254.709 27.75L255.109 30.75C256.276 29.7167 257.592 28.8667 259.059 28.2C260.526 27.5333 261.976 27.2 263.409 27.2C265.609 27.2 267.292 27.8 268.459 29C269.659 30.2 270.259 32.0333 270.259 34.5V48.9C270.259 50.2 270.892 51.0167 272.159 51.35L272.609 51.5V52H260.809V51.5L261.459 51.3C262.626 50.9333 263.209 50.1167 263.209 48.85V32.9C263.209 30.7667 262.142 29.7 260.009 29.7C258.542 29.7 256.942 30.4333 255.209 31.9V48.9C255.209 50.2 255.792 51.0167 256.959 51.35L257.409 51.5V52H245.659ZM283.488 52.75C281.354 52.75 279.688 52.2167 278.488 51.15C277.321 50.0833 276.738 48.3833 276.738 46.05V28.95H273.288V28.45L274.488 28.25C275.521 28.0167 276.404 27.6833 277.138 27.25C277.904 26.8167 278.654 26.2333 279.388 25.5L283.488 20.95H283.988L283.838 27.95H289.438V28.95H283.788V46.95C283.788 48.1167 284.038 49 284.538 49.6C285.071 50.2 285.738 50.5 286.538 50.5C287.238 50.5 287.854 50.3333 288.388 50C288.921 49.6333 289.454 49.15 289.988 48.55L290.488 49.05C289.821 50.1833 288.904 51.0833 287.738 51.75C286.571 52.4167 285.154 52.75 283.488 52.75ZM296.467 64C295.134 64 294.067 63.6667 293.267 63C292.501 62.3333 292.117 61.4833 292.117 60.45C292.117 59.5167 292.451 58.7667 293.117 58.2C293.784 57.6333 294.534 57.35 295.367 57.35C296.201 57.35 296.901 57.5167 297.467 57.85C298.034 58.2167 298.534 58.7333 298.967 59.4L299.317 59.8C300.051 60.8 300.784 60.7833 301.517 59.75C301.817 59.25 302.151 58.5833 302.517 57.75C302.917 56.95 303.367 55.8667 303.867 54.5L294.167 31.3C293.934 30.6667 293.684 30.1667 293.417 29.8C293.151 29.4 292.717 29.0667 292.117 28.8L291.217 28.45V27.95H303.667V28.4L302.667 28.8C301.934 29.0333 301.551 29.4167 301.517 29.95C301.517 30.45 301.651 31.0833 301.917 31.85L307.117 45.35L312.067 31.7C312.334 30.9333 312.434 30.3 312.367 29.8C312.301 29.2667 311.884 28.9 311.117 28.7L310.067 28.45V27.95H317.017V28.45L315.917 28.8C315.151 29.0333 314.617 29.3667 314.317 29.8C314.017 30.2333 313.734 30.8333 313.467 31.6L305.417 53.55C304.117 57.05 302.817 59.6667 301.517 61.4C300.217 63.1333 298.534 64 296.467 64Z" fill="#10375C"/>
</svg>
