<svg width="50" height="50" viewBox="0 0 50 50" fill="none" xmlns="http://www.w3.org/2000/svg">
<rect width="50" height="50" rx="10" fill="#10375C"/>
<path fill-rule="evenodd" clip-rule="evenodd" d="M31.9929 32.0281C31.1275 33.5271 29.2108 34.0406 27.7119 33.1752C26.2129 32.3098 25.6994 30.3931 26.5648 28.8942L33.4594 16.9523C34.3248 15.4534 36.2415 14.9398 37.7404 15.8052C39.2394 16.6706 39.753 18.5873 38.8875 20.0863L31.9929 32.0281ZM11.1894 20.1564C10.324 18.6575 10.8376 16.7408 12.3365 15.8754C13.8355 15.01 15.7521 15.5236 16.6176 17.0225L23.5122 28.9644C24.3776 30.4633 23.864 32.38 22.3651 33.2454C20.8662 34.1108 18.9495 33.5973 18.0841 32.0983L11.1894 20.1564ZM24.9977 24.4628C27.0747 24.4628 28.7584 22.7791 28.7584 20.7021C28.7584 18.6251 27.0747 16.9414 24.9977 16.9414C22.9207 16.9414 21.237 18.6251 21.237 20.7021C21.237 22.7791 22.9207 24.4628 24.9977 24.4628Z" fill="white"/>
</svg>
